<svg width="106" height="128" viewBox="0 0 106 128" fill="none" xmlns="http://www.w3.org/2000/svg">
<path d="M0 54.3737C0 51.2737 2.5195 48.7607 5.62747 48.7607H100.357C103.464 48.7607 105.984 51.2737 105.984 54.3737V121.729C105.984 124.829 103.464 127.342 100.357 127.342H5.62747C2.51951 127.342 0 124.829 0 121.729V54.3737Z" fill="#FF1053"/>
<ellipse cx="81.2009" cy="49.1637" rx="18.3356" ry="16.5222" transform="rotate(-180 81.2009 49.1637)" fill="white"/>
<path d="M42.6737 73.3426H50.8335C51.2123 73.3426 51.5393 73.4807 51.8148 73.7571C52.0902 74.0334 52.2279 74.3615 52.2279 74.7415V108.212C52.2279 108.592 52.0902 108.92 51.8148 109.196C51.5393 109.473 51.2123 109.611 50.8335 109.611H41.4859C41.1072 109.611 40.7801 109.473 40.5046 109.196C40.2292 108.92 40.0915 108.592 40.0915 108.212V94.0155L36.683 99.6112C36.1321 100.475 35.4951 100.906 34.7721 100.906H31.157C30.434 100.906 29.797 100.475 29.2462 99.6112L25.8376 94.0155V108.212C25.8376 108.592 25.6999 108.92 25.4245 109.196C25.149 109.473 24.8219 109.611 24.4432 109.611H15.0956C14.7168 109.611 14.3898 109.473 14.1143 109.196C13.8389 108.92 13.7012 108.592 13.7012 108.212V74.7415C13.7012 74.3615 13.8389 74.0334 14.1143 73.7571C14.3898 73.4807 14.7168 73.3426 15.0956 73.3426H23.2554C24.2194 73.3426 24.9597 73.8089 25.4761 74.7415L32.9646 87.1763L40.453 74.7415C40.9694 73.8089 41.7097 73.3426 42.6737 73.3426Z" fill="white"/>
<path d="M80.7345 73.3426H90.0821C90.4608 73.3426 90.7879 73.4807 91.0633 73.7571C91.3388 74.0334 91.4765 74.3615 91.4765 74.7415V108.212C91.4765 108.592 91.3388 108.92 91.0633 109.196C90.7879 109.473 90.4608 109.611 90.0821 109.611H81.9223C81.0271 109.611 80.3213 109.214 79.8049 108.419L71.0769 95.2072V108.212C71.0769 108.592 70.9392 108.92 70.6638 109.196C70.3883 109.473 70.0613 109.611 69.6825 109.611H60.3349C59.9562 109.611 59.6291 109.473 59.3537 109.196C59.0782 108.92 58.9405 108.592 58.9405 108.212V74.7415C58.9405 74.3615 59.0782 74.0334 59.3537 73.7571C59.6291 73.4807 59.9562 73.3426 60.3349 73.3426H68.4947C69.4587 73.3426 70.1646 73.7398 70.6121 74.5342L79.3401 88.8861V74.7415C79.3401 74.3615 79.4778 74.0334 79.7532 73.7571C80.0286 73.4807 80.3557 73.3426 80.7345 73.3426Z" fill="white"/>
<ellipse cx="80.999" cy="48.7607" rx="14.5073" ry="14.1043" transform="rotate(-180 80.999 48.7607)" fill="#2E2E2E"/>
<path d="M24.5818 10.5217C24.5818 -20.0695 67.5664 23.268 89.0587 48.7607H56.8203C46.0741 48.7607 24.5818 41.1129 24.5818 10.5217Z" fill="#272727"/>
<ellipse cx="81.6037" cy="48.1562" rx="6.64919" ry="7.05217" transform="rotate(-180 81.6037 48.1562)" fill="white"/>
</svg>
